PathFileType	4	(X/Y/Z)	D:\Studies\Accel_Decel\Raw_data\p_01\static/static_01.trc
DataRate	CameraRate	NumFrames	NumMarkers	Units	OrigDataRate	OrigDataStartFrame	OrigNumFrames
200.000000	200.000000	4	63	mm	200.000000	370	987
Frame#	Time	C7			Sternum			MidT			L.ASIS			R.ASIS			L.PSIS			R.PSIS			L.Acromion			L.Elbow.Med			L.Elbow.Lat			L.Radius			L.Ulna			R.Acromion			R.Elbow.Med			R.Elbow.Lat			R.Ulna			R.Radius			L.Thigh.Post.Sup			L.Thigh.Ant.Sup			L.Thigh.Post.Inf			L.Thigh.Ant.Inf			L.Knee.Med			L.Knee.Lat			L.Shank.Post.Sup			L.Shank.Ant.Sup			L.Shank.Post.Inf			L.Shank.Ant.Inf			L.Ankle.Med			L.Ankle.Lat			L.Heel.Sup			L.Heel.Inf			L.Heel. Med			L.Heel.Lat			L.Midfoot.Med			L.Midfoot.Int			L.Midfoot.Lat			L.MTP1			L.MTP2			L.MTP5			L.Toe			R.Thigh.Post.Sup			R.Thigh.Ant.Sup			R.Thigh.Post.Inf			R.Thigh.Ant.Inf			R.Knee.Med			R.Knee.Lat			R.Shank.Post.Sup			R.Shank.Ant.Sup			R.Shank.Post.Inf			R.Shank.Ant.Inf			R.Ankle.Med			R.Ankle.Lat			R.Heel.Sup			R.Heel.Inf			R.Heel.Med			R.Heel.Lat			R.Midfoot.Med			R.Midfoot.Int			R.Midfoot.Lat			R.MTP1			R.MTP2			R.MTP5			R.Toe			
		X1	Y1	Z1	X2	Y2	Z2	X3	Y3	Z3	X4	Y4	Z4	X5	Y5	Z5	X6	Y6	Z6	X7	Y7	Z7	X8	Y8	Z8	X9	Y9	Z9	X10	Y10	Z10	X11	Y11	Z11	X12	Y12	Z12	X13	Y13	Z13	X14	Y14	Z14	X15	Y15	Z15	X16	Y16	Z16	X17	Y17	Z17	X18	Y18	Z18	X19	Y19	Z19	X20	Y20	Z20	X21	Y21	Z21	X22	Y22	Z22	X23	Y23	Z23	X24	Y24	Z24	X25	Y25	Z25	X26	Y26	Z26	X27	Y27	Z27	X28	Y28	Z28	X29	Y29	Z29	X30	Y30	Z30	X31	Y31	Z31	X32	Y32	Z32	X33	Y33	Z33	X34	Y34	Z34	X35	Y35	Z35	X36	Y36	Z36	X37	Y37	Z37	X38	Y38	Z38	X39	Y39	Z39	X40	Y40	Z40	X41	Y41	Z41	X42	Y42	Z42	X43	Y43	Z43	X44	Y44	Z44	X45	Y45	Z45	X46	Y46	Z46	X47	Y47	Z47	X48	Y48	Z48	X49	Y49	Z49	X50	Y50	Z50	X51	Y51	Z51	X52	Y52	Z52	X53	Y53	Z53	X54	Y54	Z54	X55	Y55	Z55	X56	Y56	Z56	X57	Y57	Z57	X58	Y58	Z58	X59	Y59	Z59	X60	Y60	Z60	X61	Y61	Z61	X62	Y62	Z62	X63	Y63	Z63	

371	1.85	144.732162475586	1411.900268554688	232.4875640869142	301.7388916015626	1358.946166992188	230.1677856445314	101.007438659668	1256.581176757813	234.4781646728517	294.3876953125001	948.1006469726567	117.1073455810547	297.7933044433595	951.607299804688	335.9732055664064	130.745346069336	969.166381835938	187.3372497558594	130.0436401367188	966.5298461914067	268.8426208496095	214.8152008056642	1400.533081054688	49.31772613525393	235.6601409912111	1084.03369140625	53.76149368286136	212.3147888183595	1126.2451171875	-43.77213287353517	283.0994262695314	912.4994506835942	-123.6554870605469	240.4230041503907	874.2897949218755	-64.09084320068362	209.8084259033204	1389.148315429688	416.4505310058596	234.4359588623048	1069.243041992188	416.3201599121096	211.9566345214845	1102.86279296875	522.576110839844	243.2411499023439	856.4302368164067	526.4472656250002	280.8772583007814	889.1881713867192	593.7769165039065	190.4877319335938	701.2921142578127	56.01287078857425	263.7311401367189	700.6838378906252	40.42720794677736	188.8821105957032	596.9915771484377	61.74734878540042	251.1718139648439	612.2822875976565	43.39409637451173	254.6136779785157	480.6724243164065	176.2452697753907	215.4453735351564	502.278503417969	60.64347839355472	151.6481628417969	308.5895996093751	45.74293136596681	232.5532531738282	297.4047851562501	47.23206329345705	155.5481262207032	247.3843994140626	47.08786010742189	216.4636993408204	219.7860412597657	49.10439300537112	201.5063934326173	113.8379821777344	139.4632110595704	182.2372131347657	100.7403945922852	49.5812797546387	116.8745498657227	79.35959625244143	101.0917663574219	111.5680770874024	48.64167022705081	97.41415405273443	144.1242370605469	49.16791152954104	138.5977630615235	132.6834411621094	44.45029067993165	56.58638381958011	243.4763793945314	88.80022430419925	138.0318145751954	277.7178344726564	110.4021377563477	88.53419494628909	220.9878387451173	84.8532638549805	33.85103225708009	328.2407836914064	62.79252624511722	119.5145416259766	336.0431213378907	75.2778015136719	86.05600738525393	315.8559570312501	59.26116561889651	21.80748939514161	374.4014587402345	68.65173339843753	80.60914611816409	167.6922760009766	711.2141723632815	390.8354492187502	237.3477783203126	708.7727661132815	419.3747253417971	175.7964630126954	625.0750122070315	405.7472839355471	234.3206634521486	603.616638183594	420.4681701660159	241.7080535888673	484.9426574707034	292.7232971191407	212.4374084472657	494.0756530761721	407.7333679199221	139.5686340332032	270.8986816406251	407.0308532714846	201.5968170166017	287.0999450683595	423.342712402344	133.4514617919922	210.3099517822267	389.0749206542971	205.5132904052736	206.8636779785157	411.7167053222659	201.9770660400392	121.4394531250001	317.5672607421876	174.7788543701172	109.117660522461	402.5657958984377	120.2638473510743	83.60892486572268	349.7200622558595	113.0940399169922	47.41540145874025	352.4798278808595	159.7239379882813	39.53014373779298	305.4754333496095	141.9009399414063	47.02378463745119	396.4421386718752	241.8743286132814	88.18548583984378	312.592254638672	279.886444091797	108.8466949462891	363.5241699218751	224.8040924072267	84.10563659667972	417.2963562011721	318.6815795898439	65.86408233642581	325.528045654297	328.2619628906251	77.91655731201175	369.8041381835939	294.531707763672	46.23616027832033	433.4112854003909	372.9364318847657	72.03692626953128	371.7575073242189	
372	1.855	144.7452392578126	1411.903686523438	232.4591674804689	301.4730529785157	1358.786254882813	230.1171417236329	101.0135498046876	1256.561401367188	234.4277801513673	294.3751220703126	948.1018676757817	117.1026000976563	297.8039855957032	951.618286132813	335.967987060547	130.7046508789063	969.185668945313	187.3424987792969	130.0662536621094	966.5536499023442	268.8240966796876	214.8157196044923	1400.439819335938	49.2732849121094	235.6438446044923	1083.939453125	53.74123764038089	212.342987060547	1126.166870117188	-43.79552459716798	283.138397216797	912.4166870117192	-123.6741409301758	240.4478759765626	874.175415039063	-64.10437774658206	209.8104400634767	1389.07568359375	416.4124755859377	234.4485778808595	1069.1728515625	416.3115234375002	211.9845581054689	1102.805541992188	522.567810058594	243.3032989501954	856.3830566406255	526.4761352539065	280.9374389648439	889.177368164063	593.7974853515627	190.4760894775391	701.2951660156252	56.01211166381839	263.7213134765626	700.666198730469	40.38688278198244	188.9122009277344	596.9073486328127	61.76021957397464	251.0202026367189	612.2412109375002	43.29652404785158	254.6153411865236	480.6770324707034	176.2451477050782	215.4213714599611	502.2825622558596	60.61847305297854	151.6277160644532	308.5787963867189	45.69857788085939	232.5174865722657	297.4063720703126	47.22710418701173	155.5964965820313	247.1303253173829	47.01763916015626	216.5477447509767	219.8421783447267	48.95979690551761	201.4990997314454	113.828956604004	139.455551147461	182.2390136718751	100.7258529663087	49.60515594482425	116.879737854004	79.36902618408206	101.0966033935547	111.5546188354493	48.63406372070315	97.40690612792974	144.1152343750001	49.1783256530762	138.5770416259766	132.6863250732422	44.42343139648439	56.61467361450198	243.4818420410157	88.77960205078128	138.0527648925782	277.7005004882814	110.3809127807618	88.54912567138675	220.9922485351564	84.87014770507815	33.84827804565431	328.2151489257814	62.7682914733887	119.4880828857422	336.0419006347657	75.28985595703128	86.04837036132815	315.8570861816407	59.2824401855469	21.80721092224122	374.3775024414064	68.63590240478518	80.6078796386719	167.7175903320313	711.2603759765627	390.8745117187502	237.4036254882814	708.7605590820315	419.360778808594	175.7884368896485	625.1360473632815	405.7620849609377	234.0957794189454	603.5787353515627	420.3564147949221	241.7595062255861	484.9439697265627	292.7509155273439	212.4115142822267	494.0675964355471	407.7319335937502	139.5508117675782	270.9041442871095	407.0127868652346	201.6007690429689	287.078826904297	423.4023132324221	133.4585418701172	210.2759094238282	389.0696411132815	205.5283660888673	206.8072967529298	411.7413635253909	202.0016632080079	121.4352569580079	317.5720520019532	174.7625579833985	109.1195831298829	402.5526123046877	120.2354278564454	83.60066223144534	349.7153930664064	113.0972518920899	47.40099334716798	352.4577636718751	159.7012176513672	39.54880905151369	305.4807434082032	141.903060913086	46.99658203125001	396.4284667968752	241.8544769287111	88.19069671630862	312.6043701171876	279.8594970703126	108.8436889648438	363.5120239257814	224.7722167968751	84.08500671386722	417.2896423339846	318.6861877441407	65.87937927246097	325.5195922851564	328.256072998047	77.89875793457034	369.814666748047	294.5178527832032	46.2350540161133	433.4295654296877	372.9232482910157	72.0371017456055	371.7478332519532	
373	1.86	144.7769775390626	1411.903076171875	232.4314270019532	301.6715698242189	1358.806274414063	230.0587463378907	101.0630950927735	1256.5400390625	234.3694763183595	294.4326782226564	948.0852050781255	117.063217163086	297.8238525390626	951.6293334960942	335.9673156738282	130.746322631836	969.1418457031255	187.3412475585938	130.1107330322266	966.5380249023442	268.8247985839845	214.8095703125001	1400.340698242188	49.217887878418	235.7379302978517	1083.850219726563	53.75767898559573	212.382293701172	1126.06396484375	-43.83963012695314	283.1940917968751	912.331176757813	-123.685890197754	240.5091400146486	874.0605468750005	-64.12068939208987	209.8612823486329	1388.988037109375	416.3816833496096	234.4312896728517	1069.10302734375	416.312683105469	212.032196044922	1102.750732421875	522.5568847656252	243.4007568359376	856.3345336914067	526.5123291015627	281.1673278808595	889.2102661132817	593.8750000000002	190.4276885986329	701.2796630859377	55.95633316040042	263.4707946777345	700.7391357421877	40.28701782226564	188.8809051513672	596.9527587890627	61.79619216918948	251.1521301269532	612.2711181640627	43.14927291870119	254.652801513672	480.7060852050784	176.2470092773438	215.3996582031251	502.289245605469	60.63130187988284	151.5755615234376	308.5686645507814	45.72219085693361	232.4862823486329	297.4149169921876	47.17940521240236	155.5638122558594	247.3635406494142	47.04089736938478	216.4859466552736	219.8602905273439	48.922477722168	201.4886932373048	113.8186111450196	139.4558868408204	182.2375488281251	100.731071472168	49.58721160888675	116.8568725585938	79.35627746582034	101.0848693847657	111.5589141845704	48.63149261474612	97.39861297607428	144.1719360351563	49.14616394042972	138.6041564941407	132.6688690185547	44.43500900268556	56.55762481689456	243.4173889160157	88.72544860839847	138.0649566650391	277.6927185058595	110.3853302001954	88.52834320068362	221.0035247802736	84.85697174072268	33.82165908813478	328.2322692871095	62.76895904541018	119.4994735717774	336.0437927246095	75.28255462646487	86.02738189697268	315.8465270996095	59.26572418212893	21.75651550292969	374.3834838867189	68.62665557861331	80.5944519042969	167.634994506836	711.2317504882815	390.8324279785159	237.361541748047	708.7532958984377	419.3848571777346	175.7955017089844	625.1018676757815	405.703308105469	234.0720825195314	603.6192016601565	420.311462402344	241.8401641845704	484.9219360351565	292.7055969238282	212.4036254882814	494.0712890625002	407.7416076660159	139.5868072509766	270.9292602539064	407.0035400390627	201.5549316406251	287.0531005859376	423.3524475097659	133.4308013916016	210.2882232666017	389.0457763671877	205.5343780517579	206.7992553710939	411.7729797363284	202.0143585205079	121.4363479614258	317.5763244628907	174.7736968994141	109.1118316650391	402.534606933594	120.256690979004	83.5888595581055	349.6974487304689	113.1264724731446	47.40540313720705	352.4624328613282	159.7048492431641	39.53151321411134	305.4753723144532	141.9055938720704	46.99025344848634	396.4122619628909	241.9079437255861	88.21232604980472	312.5679931640626	279.8735961914064	108.8491134643555	363.5175781250001	224.7707977294923	84.07898712158206	417.2805786132815	318.6949462890626	65.86579895019534	325.5240783691407	328.2766723632814	77.90459442138675	369.8067626953126	294.5142822265626	46.22253417968751	433.426696777344	372.9348449707032	72.05770111083987	371.7508239746095	
374	1.865	144.8074340820313	1411.908569335938	232.4288940429689	301.6506347656251	1358.731201171875	230.0231018066407	101.0980758666993	1256.53564453125	234.334686279297	294.3724670410157	948.0819702148442	117.0583953857422	297.8252258300782	951.6203613281255	335.950653076172	130.7835693359376	969.1520385742192	187.3225555419922	130.1244506835938	966.5410156250005	268.8310546875001	214.8108367919923	1400.252075195313	49.17464065551761	235.7519683837892	1083.762573242188	53.72469329833987	212.4133758544923	1125.97705078125	-43.84888839721681	283.2484436035157	912.2474975585942	-123.6892852783204	240.5651397705079	873.9650268554692	-64.12538909912112	209.8794250488282	1388.902099609375	416.353210449219	234.411834716797	1069.024780273438	416.3094482421877	212.0570678710939	1102.669311523438	522.5212402343752	243.4517364501954	856.2868041992192	526.563171386719	281.2586975097657	889.1856079101567	593.9020996093752	190.450668334961	701.2808227539065	55.99599838256839	263.435516357422	700.6861572265627	40.31459426879884	188.8554382324219	596.9201660156252	61.75088119506839	251.1100463867189	612.2795410156252	43.12329101562501	254.5999450683595	480.6555480957034	176.2405395507813	215.3972167968751	502.2769775390627	60.6371994018555	151.5608673095704	308.5662231445314	45.70375442504884	232.4901428222657	297.4038696289064	47.18178558349611	155.5445861816407	247.3355407714845	47.09742355346681	216.4857482910157	219.8144531250001	48.935661315918	201.4989471435548	113.8137130737305	139.451889038086	182.2297973632813	100.7045211791993	49.59750747680667	116.8432846069337	79.38527679443362	101.0892486572266	111.5805816650391	48.62289047241214	97.40061187744146	144.1707763671876	49.14652252197268	138.5928192138672	132.6700439453126	44.42177963256837	56.56552886962893	243.4386596679689	88.72947692871097	138.0736541748047	277.6953430175782	110.3701324462891	88.52700805664065	221.0126495361329	84.8499450683594	33.81727218627931	328.2359924316407	62.72144699096683	119.486183166504	336.0340270996095	75.24942779541018	86.0259704589844	315.8702392578126	59.26234054565433	21.78350067138673	374.4072875976564	68.59594726562503	80.61412048339847	167.7191009521485	711.2259521484377	390.8507385253909	237.3760681152345	708.7476806640627	419.3919982910159	175.7622070312501	625.0652465820315	405.6539611816409	234.1388702392579	603.6179809570315	420.3334655761721	241.7634429931642	484.9372863769534	292.7374572753907	212.3985748291017	494.0708618164065	407.7383422851565	139.5760345458985	270.9216308593751	407.0221862792971	201.5549774169923	287.0148010253907	423.404968261719	133.4722747802735	210.264862060547	389.0874633789065	205.5685882568361	206.8498840332032	411.7685546875002	202.0118408203126	121.4393615722657	317.5815734863282	174.7482604980469	109.1041259765626	402.5465087890627	120.2388534545899	83.59959411621097	349.7045288085939	113.1205825805665	47.39582824707033	352.4497070312501	159.7400054931641	39.535457611084	305.4794311523439	141.9109802246094	46.98156738281251	396.4112854003909	241.8723754882814	88.19783782958987	312.6026306152345	279.8677673339845	108.8391113281251	363.5098876953126	224.7750549316407	84.08304595947268	417.2839050292971	318.6902770996095	65.86793518066409	325.5148315429689	328.2562561035157	77.8920822143555	369.8191833496095	294.5202026367189	46.2131805419922	433.4368896484377	372.920867919922	72.01971435546878	371.7531738281251	
